<svg width="110.000000" height="45.785645" viewBox="0 0 110 45.7856" fill="none" xmlns="http://www.w3.org/2000/svg" xmlns:xlink="http://www.w3.org/1999/xlink">
	<desc>
			Created with Pixso.
	</desc>
	<defs>
		<clipPath id="clip72_864">
			<rect id="Company logo" rx="0.000000" width="109.000000" height="44.785721" transform="translate(0.500000 0.500000)" fill="white" fill-opacity="0"/>
		</clipPath>
	</defs>
	<rect id="Company logo" rx="0.000000" width="109.000000" height="44.785721" transform="translate(0.500000 0.500000)" fill="#FFFFFF" fill-opacity="0"/>
	<g clip-path="url(#clip72_864)">
		<path id="Vector" d="M63.18 32.93C65.25 32.7 69.77 32.19 70.58 33.17C71.39 34.17 69.67 38.26 68.9 40.09L68.9 40.09C68.67 40.65 69.17 40.87 69.69 40.45C73.11 37.73 73.99 32.02 73.29 31.2C72.6 30.38 66.63 29.67 62.99 32.12C62.43 32.49 62.52 33.01 63.15 32.93L63.18 32.93ZM44.4 42.92C52.34 42.92 61.57 40.53 67.93 36.06C68.98 35.31 68.08 34.2 67.01 34.64C59.87 37.53 52.12 38.92 45.07 38.92C34.62 38.92 24.5 36.19 16.31 31.64C15.6 31.24 15.06 31.94 15.66 32.46C23.24 38.99 33.27 42.92 44.4 42.92Z" fill="#FF9900" fill-opacity="1.000000" fill-rule="evenodd"/>
		<path id="Vector" d="M12.6 29.72C12.85 29.85 13.18 29.83 13.4 29.64L13.41 29.65C14.09 29.08 15.32 28.06 16.01 27.51C16.28 27.29 16.24 26.94 16.02 26.65C15.4 25.83 14.74 25.16 14.74 23.65L14.74 18.61C14.74 18.44 14.74 18.27 14.74 18.1C14.75 16.17 14.76 14.4 13.25 13.05C11.95 11.86 9.79 11.44 8.14 11.44C4.92 11.44 1.32 12.59 0.56 16.39C0.49 16.79 0.79 17.01 1.07 17.07L4.36 17.4C4.66 17.39 4.89 17.1 4.94 16.81C5.22 15.5 6.38 14.87 7.67 14.87C8.37 14.87 9.16 15.12 9.57 15.71C9.99 16.31 9.99 17.1 9.98 17.81C9.98 17.89 9.98 17.97 9.98 18.05L9.98 18.47C8.02 18.68 5.45 18.82 3.61 19.59C1.49 20.47 0 22.25 0 24.88C0 28.24 2.22 29.92 5.07 29.92C7.48 29.92 8.79 29.37 10.65 27.56C11.27 28.41 11.47 28.83 12.6 29.72ZM57.83 29.64C57.61 29.83 57.28 29.85 57.03 29.72C55.9 28.83 55.7 28.41 55.08 27.56C53.23 29.37 51.9 29.92 49.5 29.92C46.64 29.92 44.43 28.24 44.43 24.88C44.43 22.25 45.91 20.47 48.04 19.59C49.88 18.82 52.45 18.68 54.41 18.47L54.41 18.05C54.41 17.97 54.41 17.89 54.41 17.81C54.42 17.1 54.43 16.31 54 15.71C53.59 15.12 52.8 14.87 52.1 14.87C50.8 14.87 49.65 15.5 49.37 16.81C49.32 17.1 49.09 17.39 48.78 17.4L45.5 17.07C45.22 17.01 44.91 16.79 44.99 16.39C45.75 12.59 49.35 11.44 52.57 11.44C54.22 11.44 56.38 11.86 57.68 13.05C59.19 14.4 59.18 16.17 59.17 18.1C59.17 18.27 59.17 18.44 59.17 18.61L59.17 23.65C59.17 25.16 59.83 25.83 60.45 26.65C60.66 26.94 60.71 27.29 60.43 27.51C59.74 28.06 58.51 29.08 57.83 29.65L57.83 29.64ZM19.27 29.69L22.66 29.69C23.02 29.69 23.31 29.42 23.31 29.09L23.31 20.29C23.31 20.23 23.31 20.16 23.31 20.09C23.31 18.19 23.3 15.72 25.65 15.72C27.81 15.72 27.77 17.92 27.74 19.7C27.74 19.91 27.74 20.11 27.74 20.29L27.74 29.09C27.74 29.41 28.01 29.67 28.35 29.69L31.74 29.69C32.1 29.69 32.39 29.42 32.39 29.09L32.39 20.29C32.39 20.22 32.39 20.14 32.39 20.07C32.39 19.14 32.38 17.89 32.7 17.12C33.05 16.28 33.91 15.76 34.73 15.76C35.71 15.76 36.47 16.07 36.72 17.18C36.85 17.72 36.84 18.95 36.82 19.78C36.82 19.98 36.82 20.16 36.82 20.29L36.82 29.09C36.82 29.41 37.09 29.67 37.43 29.69L40.81 29.69C41.17 29.69 41.47 29.42 41.47 29.09L41.47 18.62C41.47 18.36 41.47 18.1 41.48 17.84C41.51 16.27 41.54 14.61 40.62 13.41C39.67 12.16 38.11 11.6 36.69 11.6C34.7 11.6 32.83 12.58 32.01 14.67C31.06 12.58 29.73 11.6 27.61 11.6C25.53 11.6 23.98 12.58 23.15 14.67L23.09 14.67L23.09 12.51C23.07 12.21 22.8 11.96 22.47 11.95L19.31 11.95C18.95 11.95 18.66 12.21 18.66 12.55L18.66 29.14C18.69 29.43 18.94 29.67 19.27 29.69ZM85.3 11.6C90.32 11.6 93.05 15.72 93.05 20.96C93.05 26.02 90.04 30.03 85.3 30.03C80.36 30.03 77.67 25.91 77.67 20.78C77.67 15.62 80.39 11.6 85.3 11.6ZM96.19 29.69L99.57 29.69C99.93 29.69 100.23 29.42 100.23 29.09L100.23 20.15C100.23 19.03 100.29 18.03 100.77 17.01C101.15 16.21 101.9 15.68 102.73 15.68C104.89 15.68 104.87 17.95 104.85 19.72C104.85 19.87 104.85 20.01 104.85 20.15L104.85 29.17C104.88 29.45 105.14 29.67 105.45 29.69L108.85 29.69C109.18 29.69 109.46 29.46 109.5 29.17L109.5 18.72C109.5 17.12 109.5 14.88 108.61 13.56C107.66 12.12 106.18 11.6 104.66 11.6C102.32 11.6 100.99 12.68 100.04 14.95L99.98 14.95L99.98 12.41C99.91 12.16 99.67 11.96 99.37 11.95L96.23 11.95C95.89 11.95 95.61 12.19 95.58 12.49L95.58 29.09C95.58 29.41 95.85 29.67 96.19 29.69ZM63.29 14.88L63.29 12.51C63.29 12.15 63.58 11.91 63.92 11.91L75.06 11.91C75.42 11.91 75.7 12.15 75.7 12.51L75.7 14.54C75.7 14.88 75.4 15.32 74.87 16.03L69.09 23.89C71.24 23.84 73.5 24.15 75.45 25.19C75.89 25.43 76.01 25.77 76.04 26.11L76.04 28.65C76.04 28.99 75.64 29.4 75.22 29.19C71.79 27.47 67.24 27.29 63.45 29.21C63.06 29.41 62.66 29.01 62.66 28.66L62.66 26.26C62.66 25.87 62.66 25.21 63.07 24.62L69.76 15.47L63.94 15.47C63.58 15.47 63.29 15.23 63.29 14.88ZM85.32 14.99C82.83 14.99 82.67 18.23 82.67 20.26L82.67 20.33C82.67 22.39 82.67 26.61 85.3 26.61C87.92 26.61 88.05 23.12 88.05 20.99C88.05 19.59 87.98 17.92 87.54 16.59C87.16 15.44 86.4 14.99 85.32 14.99ZM9.98 21.93C9.98 21.88 9.98 21.82 9.98 21.76L9.98 21.06C7.53 21.06 4.94 21.56 4.94 24.32C4.94 25.71 5.7 26.66 7 26.66C7.96 26.66 8.81 26.1 9.35 25.19C9.98 24.12 9.98 23.12 9.98 21.93ZM54.41 21.76C54.41 21.82 54.41 21.88 54.41 21.93C54.41 23.12 54.41 24.12 53.78 25.19C53.24 26.1 52.38 26.66 51.43 26.66C50.13 26.66 49.37 25.71 49.37 24.32C49.37 21.56 51.96 21.06 54.41 21.06L54.41 21.76Z" fill="#000000" fill-opacity="1.000000" fill-rule="evenodd"/>
	</g>
</svg>
