<svg width="113.000000" height="45.785645" viewBox="0 0 113 45.7856" fill="none" xmlns="http://www.w3.org/2000/svg" xmlns:xlink="http://www.w3.org/1999/xlink">
	<desc>
			Created with Pixso.
	</desc>
	<defs>
		<clipPath id="clip72_863">
			<rect id="Company logo" rx="0.000000" width="112.000000" height="44.785721" transform="translate(0.500000 0.500000)" fill="white" fill-opacity="0"/>
		</clipPath>
	</defs>
	<rect id="Company logo" rx="0.000000" width="112.000000" height="44.785721" transform="translate(0.500000 0.500000)" fill="#FFFFFF" fill-opacity="0"/>
	<g clip-path="url(#clip72_863)">
		<path id="Vector" d="M48.23 24.46C48.23 29.54 44.07 33.28 38.96 33.28C33.85 33.28 29.68 29.54 29.68 24.46C29.68 19.35 33.85 15.64 38.96 15.64C44.07 15.64 48.23 19.35 48.23 24.46ZM44.17 24.46C44.17 21.29 41.76 19.12 38.96 19.12C36.16 19.12 33.74 21.29 33.74 24.46C33.74 27.6 36.16 29.81 38.96 29.81C41.76 29.81 44.17 27.6 44.17 24.46Z" fill="#EA4335" fill-opacity="1.000000" fill-rule="nonzero"/>
		<path id="Vector" d="M68.24 24.46C68.24 29.54 64.08 33.28 58.97 33.28C53.86 33.28 49.69 29.54 49.69 24.46C49.69 19.35 53.86 15.64 58.97 15.64C64.08 15.64 68.24 19.35 68.24 24.46ZM64.18 24.46C64.18 21.29 61.77 19.12 58.97 19.12C56.17 19.12 53.75 21.29 53.75 24.46C53.75 27.6 56.17 29.81 58.97 29.81C61.77 29.81 64.18 27.6 64.18 24.46Z" fill="#FBBC05" fill-opacity="1.000000" fill-rule="nonzero"/>
		<path id="Vector" d="M87.42 16.18L87.42 32.01C87.42 38.52 83.39 41.18 78.63 41.18C74.15 41.18 71.45 38.32 70.43 35.99L73.97 34.58C74.6 36.02 76.14 37.71 78.63 37.71C81.67 37.71 83.56 35.92 83.56 32.54L83.56 31.27L83.42 31.27C82.51 32.34 80.76 33.28 78.55 33.28C73.93 33.28 69.69 29.44 69.69 24.49C69.69 19.52 73.93 15.64 78.55 15.64C80.76 15.64 82.51 16.58 83.42 17.61L83.56 17.61L83.56 16.18L87.42 16.18L87.42 16.18ZM83.85 24.49C83.85 21.39 81.68 19.12 78.91 19.12C76.11 19.12 73.77 21.39 73.77 24.49C73.77 27.57 76.11 29.81 78.91 29.81C81.68 29.81 83.85 27.57 83.85 24.49Z" fill="#4285F4" fill-opacity="1.000000" fill-rule="nonzero"/>
		<path id="Vector" d="M93.77 6.89L93.77 32.74L89.81 32.74L89.81 6.89L93.77 6.89Z" fill="#34A853" fill-opacity="1.000000" fill-rule="nonzero"/>
		<path id="Vector" d="M109.21 27.36L112.36 29.37C111.34 30.8 108.89 33.28 104.65 33.28C99.4 33.28 95.48 29.4 95.48 24.46C95.48 19.21 99.44 15.64 104.2 15.64C109 15.64 111.35 19.28 112.11 21.25L112.53 22.25L100.17 27.13C101.12 28.9 102.59 29.81 104.65 29.81C106.72 29.81 108.16 28.84 109.21 27.36ZM99.51 24.19L107.77 20.92C107.31 19.82 105.95 19.05 104.34 19.05C102.27 19.05 99.4 20.79 99.51 24.19Z" fill="#EA4335" fill-opacity="1.000000" fill-rule="nonzero"/>
		<path id="Vector" d="M14.69 22.17L14.69 18.43L27.91 18.43C28.04 19.08 28.11 19.85 28.11 20.68C28.11 23.49 27.3 26.96 24.71 29.44C22.19 31.94 18.97 33.28 14.7 33.28C6.78 33.28 0.13 27.13 0.13 19.58C0.13 12.04 6.78 5.89 14.7 5.89C19.07 5.89 22.19 7.53 24.53 9.66L21.77 12.3C20.09 10.8 17.81 9.63 14.69 9.63C8.91 9.63 4.4 14.07 4.4 19.58C4.4 25.09 8.91 29.54 14.69 29.54C18.44 29.54 20.57 28.1 21.94 26.8C23.05 25.74 23.78 24.23 24.07 22.16L14.69 22.17Z" fill="#4285F4" fill-opacity="1.000000" fill-rule="nonzero"/>
	</g>
</svg>
