<svg width="121.000000" height="45.785645" viewBox="0 0 121 45.7856" fill="none" xmlns="http://www.w3.org/2000/svg" xmlns:xlink="http://www.w3.org/1999/xlink">
	<desc>
			Created with Pixso.
	</desc>
	<defs>
		<clipPath id="clip72_866">
			<rect id="Company logo" rx="0.000000" width="120.000000" height="44.785721" transform="translate(0.500000 0.500000)" fill="white" fill-opacity="0"/>
		</clipPath>
	</defs>
	<rect id="Company logo" rx="0.000000" width="120.000000" height="44.785721" transform="translate(0.500000 0.500000)" fill="#FFFFFF" fill-opacity="0"/>
	<g clip-path="url(#clip72_866)">
		<path id="Vector" d="M37.92 30.93L39.39 27.65C41 28.79 43.09 29.39 45.19 29.39C46.73 29.39 47.71 28.82 47.71 27.95C47.67 25.55 38.44 27.42 38.37 21.37C38.34 18.3 41.21 15.93 45.26 15.93C47.67 15.93 50.08 16.5 51.79 17.8L50.42 21.14C48.85 20.18 46.9 19.5 45.05 19.5C43.79 19.5 42.95 20.07 42.95 20.8C42.99 23.18 52.28 21.87 52.39 27.65C52.39 30.79 49.59 33 45.61 33C42.67 33 39.98 32.33 37.92 30.93L37.92 30.93ZM96.38 26.47C96.01 27.1 95.47 27.62 94.82 27.98C94.16 28.35 93.42 28.54 92.67 28.54C90.31 28.54 88.4 26.71 88.4 24.46C88.4 22.21 90.31 20.39 92.67 20.39C93.42 20.39 94.16 20.58 94.82 20.94C95.47 21.31 96.01 21.83 96.38 22.46L100.46 20.3C98.93 17.69 96.01 15.93 92.67 15.93C87.73 15.93 83.74 19.75 83.74 24.46C83.74 29.18 87.73 33 92.67 33C96.01 33 98.93 31.23 100.46 28.63L96.38 26.47ZM55.04 32.66L60.14 32.66L60.14 8.82L55.04 8.82L55.04 32.66ZM103.04 8.82L103.04 32.66L108.14 32.66L108.14 25.52L114.19 32.66L120.71 32.66L113.02 24.18L120.15 16.26L113.91 16.26L108.14 22.84L108.14 8.82L103.04 8.82ZM75.86 16.26L75.86 18.2C75.02 16.86 72.96 15.93 70.79 15.93C66.32 15.93 62.79 19.7 62.79 24.45C62.79 29.19 66.32 33 70.79 33C72.96 33 75.02 32.06 75.86 30.73L75.86 32.66L80.96 32.66L80.96 16.26L75.86 16.26ZM75.86 26.5C75.13 27.67 73.59 28.54 71.88 28.54C69.52 28.54 67.61 26.71 67.61 24.46C67.61 22.21 69.52 20.39 71.88 20.39C73.59 20.39 75.13 21.29 75.86 22.49L75.86 26.5Z" fill="#000000" fill-opacity="1.000000" fill-rule="nonzero"/>
		<path id="Vector" d="M10.97 8.3C9.32 8.3 7.98 9.58 7.98 11.16C7.98 11.53 8.06 11.91 8.21 12.25C8.36 12.6 8.58 12.92 8.86 13.18C9.13 13.45 9.46 13.66 9.83 13.8C10.19 13.95 10.58 14.02 10.97 14.02L13.97 14.02L13.97 11.16C13.97 10.4 13.65 9.67 13.09 9.14C12.53 8.6 11.77 8.3 10.97 8.3ZM10.97 15.93L2.99 15.93C1.34 15.93 0 17.21 0 18.79C0 20.37 1.34 21.65 2.99 21.65L10.97 21.65C12.63 21.65 13.97 20.37 13.97 18.79C13.97 17.21 12.63 15.93 10.97 15.93Z" fill="#36C5F0" fill-opacity="1.000000" fill-rule="nonzero"/>
		<path id="Vector" d="M29.94 18.79C29.94 17.21 28.6 15.93 26.94 15.93C25.29 15.93 23.95 17.21 23.95 18.79L23.95 21.65L26.94 21.65C27.74 21.65 28.5 21.35 29.06 20.81C29.62 20.28 29.94 19.55 29.94 18.79ZM21.95 18.79L21.95 11.16C21.95 10.4 21.64 9.67 21.08 9.14C20.51 8.6 19.75 8.3 18.96 8.3C17.3 8.3 15.96 9.58 15.96 11.16L15.96 18.79C15.96 20.37 17.3 21.65 18.96 21.65C19.75 21.65 20.51 21.35 21.08 20.81C21.64 20.28 21.95 19.55 21.95 18.79L21.95 18.79Z" fill="#2EB67D" fill-opacity="1.000000" fill-rule="nonzero"/>
		<path id="Vector" d="M18.96 36.91C19.75 36.91 20.51 36.61 21.08 36.07C21.64 35.54 21.95 34.81 21.95 34.05C21.95 33.29 21.64 32.57 21.08 32.03C20.51 31.49 19.75 31.19 18.96 31.19L15.96 31.19L15.96 34.05C15.96 35.63 17.3 36.91 18.96 36.91ZM18.96 29.28L26.94 29.28C28.6 29.28 29.94 28 29.94 26.42C29.94 25.66 29.62 24.93 29.06 24.4C28.5 23.86 27.74 23.56 26.94 23.56L18.96 23.56C17.3 23.56 15.96 24.84 15.96 26.42C15.96 26.8 16.04 27.17 16.19 27.51C16.34 27.86 16.56 28.18 16.84 28.44C17.12 28.71 17.45 28.92 17.81 29.06C18.17 29.21 18.56 29.28 18.96 29.28L18.96 29.28Z" fill="#ECB22E" fill-opacity="1.000000" fill-rule="nonzero"/>
		<path id="Vector" d="M0 26.42C-0.01 26.8 0.07 27.17 0.22 27.51C0.37 27.86 0.59 28.18 0.87 28.44C1.15 28.71 1.48 28.92 1.84 29.06C2.21 29.21 2.6 29.28 2.99 29.28C3.78 29.28 4.55 28.98 5.11 28.44C5.67 27.91 5.98 27.18 5.98 26.42L5.98 23.56L2.99 23.56C1.34 23.56 0 24.84 0 26.42ZM7.98 26.42L7.98 34.05C7.98 35.63 9.32 36.91 10.97 36.91C11.77 36.91 12.53 36.61 13.09 36.07C13.65 35.54 13.97 34.81 13.97 34.05L13.97 26.42C13.97 26.05 13.89 25.67 13.74 25.33C13.59 24.98 13.37 24.66 13.09 24.4C12.81 24.13 12.48 23.92 12.12 23.78C11.76 23.63 11.37 23.56 10.97 23.56C9.32 23.56 7.98 24.84 7.98 26.42Z" fill="#E01E5A" fill-opacity="1.000000" fill-rule="nonzero"/>
	</g>
</svg>
