<svg width="164.000000" height="45.785645" viewBox="0 0 164 45.7856" fill="none" xmlns="http://www.w3.org/2000/svg" xmlns:xlink="http://www.w3.org/1999/xlink">
	<desc>
			Created with Pixso.
	</desc>
	<defs>
		<clipPath id="clip72_865">
			<rect id="Company logo" rx="0.000000" width="163.000000" height="44.785721" transform="translate(0.500000 0.500000)" fill="white" fill-opacity="0"/>
		</clipPath>
	</defs>
	<rect id="Company logo" rx="0.000000" width="163.000000" height="44.785721" transform="translate(0.500000 0.500000)" fill="#FFFFFF" fill-opacity="0"/>
	<g clip-path="url(#clip72_865)">
		<path id="Vector" d="M163.85 20.82L163.85 18.07L160.27 18.07L160.27 13.8L160.15 13.84L156.79 14.82L156.73 14.84L156.73 18.07L151.42 18.07L151.42 16.27C151.42 15.43 151.62 14.79 152.01 14.36C152.39 13.93 152.94 13.72 153.65 13.72C154.15 13.72 154.67 13.83 155.2 14.06L155.33 14.11L155.33 11.22L155.27 11.2C154.78 11.03 154.11 10.94 153.28 10.94C152.24 10.94 151.29 11.16 150.46 11.59C149.64 12.02 148.99 12.63 148.53 13.41C148.08 14.19 147.84 15.09 147.84 16.09L147.84 18.07L145.35 18.07L145.35 20.82L147.84 20.82L147.84 32.4L151.42 32.4L151.42 20.82L156.73 20.82L156.73 28.18C156.73 31.21 158.23 32.75 161.18 32.75C161.67 32.75 162.18 32.69 162.7 32.59C163.23 32.48 163.59 32.37 163.81 32.25L163.85 32.23L163.85 29.45L163.71 29.54C163.51 29.67 163.27 29.77 162.99 29.84C162.7 29.92 162.47 29.96 162.28 29.96C161.59 29.96 161.08 29.78 160.76 29.43C160.44 29.07 160.27 28.45 160.27 27.59L160.27 20.82L163.85 20.82ZM137.36 29.96C136.07 29.96 135.04 29.55 134.32 28.74C133.6 27.92 133.23 26.77 133.23 25.29C133.23 23.77 133.6 22.58 134.32 21.76C135.04 20.94 136.06 20.52 137.34 20.52C138.58 20.52 139.56 20.92 140.27 21.7C140.98 22.49 141.34 23.67 141.34 25.21C141.34 26.77 141 27.96 140.33 28.76C139.67 29.55 138.67 29.96 137.36 29.96ZM137.52 17.73C135.05 17.73 133.08 18.42 131.68 19.79C130.27 21.15 129.56 23.04 129.56 25.4C129.56 27.65 130.26 29.45 131.63 30.77C132.99 32.08 134.86 32.75 137.16 32.75C139.56 32.75 141.49 32.05 142.89 30.66C144.29 29.28 145 27.41 145 25.1C145 22.82 144.34 21 143.02 19.7C141.71 18.39 139.86 17.73 137.52 17.73ZM123.8 17.73C122.11 17.73 120.72 18.14 119.65 18.95C118.58 19.77 118.04 20.83 118.04 22.13C118.04 22.8 118.16 23.4 118.39 23.91C118.62 24.41 118.98 24.86 119.46 25.24C119.93 25.61 120.66 26 121.63 26.4C122.44 26.72 123.05 26.99 123.44 27.2C123.82 27.41 124.08 27.62 124.23 27.82C124.38 28.02 124.46 28.3 124.46 28.64C124.46 29.6 123.7 30.07 122.14 30.07C121.57 30.07 120.91 29.95 120.19 29.73C119.47 29.5 118.8 29.18 118.19 28.76L118.04 28.66L118.04 31.94L118.09 31.97C118.6 32.19 119.24 32.38 119.99 32.52C120.74 32.67 121.42 32.75 122.01 32.75C123.84 32.75 125.32 32.33 126.39 31.52C127.47 30.7 128.02 29.6 128.02 28.26C128.02 27.3 127.72 26.47 127.14 25.8C126.56 25.14 125.56 24.53 124.16 23.99C123.05 23.57 122.34 23.21 122.04 22.94C121.76 22.68 121.62 22.31 121.62 21.84C121.62 21.42 121.79 21.09 122.16 20.82C122.53 20.55 123.04 20.41 123.68 20.41C124.28 20.41 124.89 20.5 125.49 20.67C126.1 20.85 126.63 21.09 127.08 21.37L127.22 21.47L127.22 18.35L127.17 18.33C126.76 18.16 126.21 18.02 125.56 17.9C124.9 17.79 124.31 17.73 123.8 17.73ZM108.71 29.96C107.42 29.96 106.39 29.55 105.67 28.74C104.94 27.92 104.58 26.77 104.58 25.29C104.58 23.77 104.94 22.58 105.67 21.76C106.39 20.94 107.41 20.52 108.68 20.52C109.92 20.52 110.91 20.92 111.62 21.7C112.33 22.49 112.69 23.67 112.69 25.21C112.69 26.77 112.35 27.96 111.68 28.76C111.02 29.55 110.02 29.96 108.71 29.96ZM108.87 17.73C106.4 17.73 104.43 18.42 103.03 19.79C101.62 21.15 100.91 23.04 100.91 25.4C100.91 27.65 101.61 29.45 102.98 30.77C104.34 32.08 106.21 32.75 108.51 32.75C110.91 32.75 112.84 32.05 114.24 30.66C115.64 29.28 116.35 27.41 116.35 25.1C116.35 22.82 115.69 21 114.37 19.7C113.06 18.39 111.21 17.73 108.87 17.73ZM95.48 20.55L95.48 18.07L91.95 18.07L91.95 32.4L95.48 32.4L95.48 25.07C95.48 23.83 95.78 22.8 96.36 22.03C96.94 21.26 97.71 20.88 98.65 20.88C98.97 20.88 99.32 20.93 99.71 21.03C100.09 21.12 100.37 21.23 100.54 21.34L100.68 21.45L100.68 18.05L100.63 18.03C100.3 17.89 99.83 17.82 99.24 17.82C98.35 17.82 97.56 18.1 96.88 18.63C96.28 19.1 95.85 19.75 95.52 20.55L95.48 20.55ZM85.62 17.73C84 17.73 82.55 18.06 81.32 18.71C80.09 19.37 79.14 20.3 78.49 21.49C77.84 22.68 77.52 24.07 77.52 25.61C77.52 26.96 77.83 28.21 78.46 29.3C79.09 30.4 79.98 31.26 81.11 31.85C82.23 32.45 83.53 32.75 84.97 32.75C86.65 32.75 88.08 32.43 89.23 31.8L89.28 31.77L89.28 28.68L89.13 28.79C88.61 29.15 88.03 29.44 87.4 29.64C86.78 29.85 86.21 29.96 85.71 29.96C84.32 29.96 83.21 29.54 82.4 28.73C81.59 27.91 81.18 26.76 81.18 25.32C81.18 23.87 81.61 22.69 82.45 21.82C83.29 20.96 84.41 20.52 85.77 20.52C86.93 20.52 88.06 20.89 89.13 21.63L89.28 21.74L89.28 18.48L89.23 18.46C88.83 18.24 88.28 18.06 87.6 17.93C86.92 17.8 86.25 17.73 85.62 17.73ZM75.08 18.07L71.55 18.07L71.55 32.4L75.08 32.4L75.08 18.07ZM73.35 11.97C72.77 11.97 72.26 12.16 71.85 12.53C71.43 12.91 71.22 13.38 71.22 13.94C71.22 14.49 71.43 14.95 71.84 15.32C72.25 15.68 72.76 15.86 73.35 15.86C73.94 15.86 74.45 15.68 74.87 15.32C75.29 14.95 75.5 14.49 75.5 13.94C75.5 13.4 75.3 12.93 74.89 12.55C74.48 12.16 73.96 11.97 73.35 11.97ZM64.54 17.02L64.54 32.4L68.14 32.4L68.14 12.41L63.15 12.41L56.81 27.26L50.65 12.41L45.46 12.41L45.46 32.4L48.85 32.4L48.85 17.01L48.96 17.01L55.46 32.4L58.02 32.4L64.42 17.02L64.54 17.02Z" fill="#706D6E" fill-opacity="1.000000" fill-rule="nonzero"/>
		<path id="Vector" d="M16.62 21.58L0 21.58L0 5.73L16.62 5.73L16.62 21.58Z" fill="#F1511B" fill-opacity="1.000000" fill-rule="nonzero"/>
		<path id="Vector" d="M34.97 21.58L18.35 21.58L18.35 5.73L34.97 5.73L34.97 21.58Z" fill="#80CC28" fill-opacity="1.000000" fill-rule="nonzero"/>
		<path id="Vector" d="M16.62 39.1L0 39.1L0 23.24L16.62 23.24L16.62 39.1Z" fill="#00ADEF" fill-opacity="1.000000" fill-rule="nonzero"/>
		<path id="Vector" d="M34.97 39.1L18.35 39.1L18.35 23.24L34.97 23.24L34.97 39.1Z" fill="#FBBC09" fill-opacity="1.000000" fill-rule="nonzero"/>
	</g>
</svg>
