<svg width="165.000000" height="45.785645" viewBox="0 0 165 45.7856" fill="none" xmlns="http://www.w3.org/2000/svg" xmlns:xlink="http://www.w3.org/1999/xlink">
	<desc>
			Created with Pixso.
	</desc>
	<defs>
		<clipPath id="clip72_867">
			<rect id="Company logo" rx="0.000000" width="164.000000" height="44.785721" transform="translate(0.500000 0.500000)" fill="white" fill-opacity="0"/>
		</clipPath>
	</defs>
	<rect id="Company logo" rx="0.000000" width="164.000000" height="44.785721" transform="translate(0.500000 0.500000)" fill="#FFFFFF" fill-opacity="0"/>
	<g clip-path="url(#clip72_867)">
		<path id="Vector" d="M50.82 28.66C50.35 28.78 49.75 28.89 49.16 28.89C47.97 28.89 47.5 28.21 47.5 27.08L47.5 21.98L50.82 21.98C51.65 21.98 52.48 21.42 52.48 20.51C52.48 19.6 51.77 19.04 50.82 19.04L47.5 19.04L47.5 17.34C47.5 16.32 46.66 15.64 45.71 15.64C44.76 15.64 43.93 16.43 43.93 17.34L43.93 27.19C43.93 30.02 45.36 32.06 48.68 32.06C49.63 32.06 50.94 31.95 51.89 31.5C52.72 31.16 52.96 30.59 52.96 30.02C52.96 29.23 52.13 28.44 50.82 28.66ZM62.7 18.58C62.22 18.47 61.27 18.36 60.44 18.36C57.47 18.36 55.81 20.06 55.81 22.66L55.81 30.36C55.81 31.27 56.64 32.06 57.59 32.06C58.54 32.06 59.37 31.27 59.37 30.36L59.37 23.34C59.37 22.21 59.85 21.76 60.68 21.76C61.51 21.76 61.98 21.98 62.7 21.98C63.76 21.98 64.36 21.08 64.36 20.4C64.24 19.49 63.76 18.92 62.7 18.58ZM72.55 18.36C69.23 18.36 66.85 20.4 66.5 23.68C66.5 24.47 66.38 25.83 66.5 26.85C66.73 30.02 69.11 32.18 72.67 32.18C74.33 32.18 75.88 31.84 76.83 31.27C77.54 30.82 77.66 30.36 77.66 29.91C77.66 29 76.83 28.1 75.4 28.55C74.57 28.89 73.62 29.12 72.67 29.12C71.01 29.12 69.7 28.32 69.7 26.74L69.7 26.4L76.47 26.4C77.66 26.4 78.25 25.72 78.25 24.7L78.25 24.13C78.37 20.62 76 18.36 72.55 18.36ZM74.81 24.13L69.82 24.13C69.82 22.43 70.65 21.3 72.55 21.3C74.21 21.3 75.16 22.32 75.05 23.79C75.05 24.02 75.05 24.13 74.81 24.13ZM86.8 18.36C83.48 18.36 81.1 20.4 80.75 23.68C80.75 24.47 80.63 25.83 80.75 26.85C80.98 30.02 83.36 32.18 86.92 32.18C88.58 32.18 90.13 31.84 91.08 31.27C91.79 30.82 91.91 30.36 91.91 29.91C91.91 29 91.08 28.1 89.65 28.55C88.82 28.89 87.87 29.12 86.92 29.12C85.26 29.12 83.95 28.32 83.95 26.74L83.95 26.4L90.72 26.4C91.91 26.4 92.5 25.72 92.5 24.7L92.5 24.13C92.62 20.62 90.25 18.36 86.8 18.36ZM89.06 24.13L84.07 24.13C84.07 22.43 84.9 21.3 86.8 21.3C88.46 21.3 89.41 22.32 89.3 23.79C89.3 24.02 89.3 24.13 89.06 24.13ZM146.77 24.02L144.87 23.57C143.68 23.34 143.33 23 143.33 22.43C143.33 21.87 143.92 21.42 145.23 21.42C145.94 21.42 146.77 21.64 147.48 21.98C148.31 22.43 149.26 22.32 149.74 21.76C150.33 21.19 150.33 20.17 149.62 19.49C148.67 18.81 147.01 18.36 145.35 18.36C142.26 18.36 140 19.83 140 22.55C140 24.7 141.66 25.83 143.8 26.4C144.87 26.63 144.75 26.63 145.7 26.85C146.77 27.08 147.25 27.53 147.25 27.99C147.25 28.66 146.65 29.12 145.23 29.12C144.04 29.12 142.97 28.78 142.14 28.32C141.31 27.76 140.36 27.99 139.88 28.66C139.41 29.34 139.53 30.25 140.24 30.7C141.19 31.5 142.73 32.18 145.23 32.18C148.31 32.18 150.69 30.59 150.69 27.87C150.69 25.83 149.38 24.59 146.77 24.02ZM163.28 26.4C164.46 26.4 165.06 25.72 165.06 24.7L165.06 24.13C165.06 20.62 162.68 18.36 159.24 18.36C155.91 18.36 153.54 20.4 153.18 23.68C153.18 24.47 153.06 25.83 153.18 26.85C153.42 30.02 155.8 32.18 159.36 32.18C161.02 32.18 162.56 31.84 163.51 31.27C164.23 30.82 164.35 30.36 164.35 29.91C164.35 29 163.51 28.1 162.09 28.55C161.26 28.89 160.31 29.12 159.36 29.12C157.7 29.12 156.39 28.32 156.39 26.74L156.39 26.4L163.28 26.4ZM159.24 21.3C160.9 21.3 161.85 22.32 161.73 23.79C161.73 24.02 161.61 24.13 161.5 24.13L156.51 24.13C156.51 22.43 157.46 21.3 159.24 21.3ZM115.78 18.36C112.21 18.36 109.6 20.51 109.25 23.45C109.13 24.47 109.13 26.06 109.25 27.08C109.48 30.02 112.21 32.18 115.78 32.18C119.34 32.18 121.95 30.02 122.19 27.08C122.31 26.06 122.31 24.59 122.19 23.57C121.95 20.51 119.34 18.36 115.78 18.36ZM118.63 26.51C118.51 27.99 117.44 28.89 115.78 28.89C114.11 28.89 113.05 27.87 112.93 26.51C112.93 25.83 112.93 24.7 112.93 24.02C113.05 22.55 114.11 21.64 115.78 21.64C117.44 21.64 118.51 22.66 118.63 24.02C118.75 24.7 118.75 25.83 118.63 26.51ZM101.65 18.36C100.34 18.36 98.91 18.81 98.44 19.38L98.44 15.75C98.44 14.73 97.73 14.05 96.78 14.05C95.83 14.05 95.11 14.85 95.11 15.75L95.11 30.36C95.11 31.27 95.95 32.06 96.9 32.06C97.85 32.06 98.56 31.27 98.56 30.36L98.56 22.77C99.15 22.21 100.1 21.76 101.29 21.76C102.71 21.76 103.55 22.55 103.55 24.13L103.55 30.36C103.55 31.38 104.26 32.18 105.21 32.18C106.28 32.18 106.99 31.38 106.99 30.36L106.99 23.91C106.87 20.28 104.97 18.36 101.65 18.36ZM134.89 18.47C133.95 18.47 133.11 19.26 133.11 20.17L133.11 28.21C132.52 28.55 131.69 28.89 130.62 28.89C129.2 28.89 128.13 28.1 128.13 26.51L128.13 20.17C128.13 19.15 127.3 18.36 126.35 18.36C125.28 18.36 124.68 19.15 124.68 20.17L124.68 26.63C124.68 30.14 126.82 32.06 130.5 32.06C133.23 32.06 135.13 31.16 135.96 30.59C136.44 30.36 136.56 30.02 136.56 29.46L136.56 20.17C136.56 19.26 135.85 18.47 134.89 18.47Z" fill="#3E474F" fill-opacity="1.000000" fill-rule="nonzero"/>
		<path id="Vector" d="M30.87 11.45C29.56 10.77 27.55 11.9 26.36 13.94L24.1 17.56C23.27 19.04 23.39 20.85 24.46 22.32L24.58 22.43C25.65 23.79 26.95 25.15 27.43 25.61C27.66 25.83 27.9 26.17 28.02 26.63C28.38 27.87 27.66 29.23 26.24 29.57C24.93 29.91 23.51 29.23 23.15 27.87C23.03 27.53 23.03 27.19 23.03 26.97C23.15 26.4 22.91 25.61 22.08 24.7C21.25 23.91 19.71 25.49 19.11 27.08L19.11 27.19C18.64 28.78 18.28 30.25 18.4 30.36C18.4 30.48 18.52 30.48 18.52 30.59C19.23 31.95 18.76 33.54 17.33 34.22C15.91 34.89 14.25 34.44 13.53 33.08C12.82 31.72 13.3 30.14 14.72 29.46C14.84 29.46 14.84 29.34 14.96 29.34C15.08 29.34 15.31 28.66 15.67 27.76C15.91 26.97 16.03 26.63 16.15 26.29C16.26 25.83 16.5 24.7 16.38 24.25C16.26 23.68 15.67 23.68 15.08 24.02C14.72 24.25 14.01 24.81 13.77 25.04C13.18 25.49 12.7 26.17 12.46 26.74C12.35 26.97 12.11 27.31 11.87 27.53C10.8 28.33 9.26 28.21 8.31 27.19C7.48 26.17 7.6 24.7 8.66 23.79C9.02 23.57 9.38 23.34 9.73 23.34C10.33 23.23 12.46 21.98 13.77 21.08C14.01 20.96 14.36 20.62 14.48 20.51C14.84 20.06 14.48 19.72 14.13 19.72C13.06 19.83 11.87 19.94 11.63 20.28C11.51 20.4 11.4 20.62 11.16 20.74C10.21 21.42 8.78 21.19 8.07 20.28C7.36 19.38 7.6 18.02 8.54 17.34C8.9 17 9.5 16.88 9.85 16.88C10.68 16.88 12.82 17.34 14.48 17L14.96 16.88C16.74 16.54 18.88 15.07 19.71 13.6C19.71 13.6 20.54 12.24 21.49 10.54C22.56 8.84 22.44 6.92 21.37 6.35L19.35 5.22C18.28 4.65 16.74 4.65 15.67 5.22L1.89 12.69C0.83 13.26 0 14.62 0 15.75L0 30.25C0 31.38 0.83 32.74 1.89 33.31L15.67 40.79C16.74 41.35 18.4 41.35 19.35 40.79L33.13 33.31C34.2 32.74 35.03 31.38 35.03 30.25L35.03 15.75C35.03 14.62 34.2 13.26 33.13 12.69C33.13 12.69 32.18 12.13 30.87 11.45Z" fill="#5FCF80" fill-opacity="1.000000" fill-rule="nonzero"/>
	</g>
</svg>
