<svg width="20.000000" height="20.000000" viewBox="0 0 20 20" fill="none" xmlns="http://www.w3.org/2000/svg" xmlns:xlink="http://www.w3.org/1999/xlink">
	<desc>
			Created with Pixso.
	</desc>
	<defs>
		<clipPath id="clip72_744">
			<rect id="calendar-alt" rx="0.000000" width="19.000000" height="19.000000" transform="translate(0.500000 0.500000)" fill="white" fill-opacity="0"/>
		</clipPath>
	</defs>
	<g clip-path="url(#clip72_744)">
		<path id="Icon" d="M2.5 7.5L17.5 7.5M14.83 4.16C15.76 4.16 16.23 4.16 16.59 4.34C16.9 4.5 17.15 4.76 17.31 5.07C17.5 5.43 17.5 5.89 17.5 6.83L17.5 14.83C17.5 15.76 17.5 16.23 17.31 16.59C17.15 16.9 16.9 17.15 16.59 17.31C16.23 17.5 15.76 17.5 14.83 17.5L5.16 17.5C4.23 17.5 3.76 17.5 3.41 17.31C3.09 17.15 2.84 16.9 2.68 16.59C2.5 16.23 2.5 15.76 2.5 14.83L2.5 6.83C2.5 5.89 2.5 5.43 2.68 5.07C2.84 4.76 3.09 4.5 3.41 4.34C3.76 4.16 4.23 4.16 5.16 4.16L14.83 4.16ZM5.83 2.5L5.83 4.16M14.16 2.5L14.16 4.16M5 10.83L6.66 10.83M5 14.16L6.66 14.16M9.16 10.83L10.83 10.83M9.16 14.16L10.83 14.16M13.33 10.83L15 10.83M13.33 14.16L15 14.16" stroke="#888888" stroke-opacity="1.000000" stroke-width="1.500000" stroke-linejoin="round" stroke-linecap="round"/>
	</g>
</svg>
