<svg width="20.000000" height="20.000000" viewBox="0 0 20 20" fill="none" xmlns="http://www.w3.org/2000/svg" xmlns:xlink="http://www.w3.org/1999/xlink">
	<desc>
			Created with Pixso.
	</desc>
	<defs>
		<clipPath id="clip72_740">
			<rect id="grid" rx="0.000000" width="19.000000" height="19.000000" transform="translate(0.500000 0.500000)" fill="white" fill-opacity="0"/>
		</clipPath>
	</defs>
	<g clip-path="url(#clip72_740)">
		<path id="Icon" d="M15.33 3.33C15.8 3.33 16.03 3.33 16.21 3.42C16.36 3.5 16.49 3.63 16.57 3.78C16.66 3.96 16.66 4.2 16.66 4.66L16.66 7C16.66 7.46 16.66 7.7 16.57 7.87C16.49 8.03 16.36 8.16 16.21 8.24C16.03 8.33 15.8 8.33 15.33 8.33L13 8.33C12.53 8.33 12.29 8.33 12.12 8.24C11.96 8.16 11.83 8.03 11.75 7.87C11.66 7.7 11.66 7.46 11.66 7L11.66 4.66C11.66 4.2 11.66 3.96 11.75 3.78C11.83 3.63 11.96 3.5 12.12 3.42C12.29 3.33 12.53 3.33 13 3.33L15.33 3.33ZM6.99 3.33C7.46 3.33 7.7 3.33 7.87 3.42C8.03 3.5 8.16 3.63 8.24 3.78C8.33 3.96 8.33 4.2 8.33 4.66L8.33 7C8.33 7.46 8.33 7.7 8.24 7.87C8.16 8.03 8.03 8.16 7.87 8.24C7.7 8.33 7.46 8.33 6.99 8.33L4.66 8.33C4.19 8.33 3.96 8.33 3.78 8.24C3.63 8.16 3.5 8.03 3.42 7.87C3.33 7.7 3.33 7.46 3.33 7L3.33 4.66C3.33 4.2 3.33 3.96 3.42 3.78C3.5 3.63 3.63 3.5 3.78 3.42C3.96 3.33 4.19 3.33 4.66 3.33L6.99 3.33ZM6.99 11.66C7.46 11.66 7.7 11.66 7.87 11.75C8.03 11.83 8.16 11.96 8.24 12.12C8.33 12.3 8.33 12.53 8.33 13L8.33 15.33C8.33 15.8 8.33 16.03 8.24 16.21C8.16 16.36 8.03 16.49 7.87 16.57C7.7 16.66 7.46 16.66 6.99 16.66L4.66 16.66C4.19 16.66 3.96 16.66 3.78 16.57C3.63 16.49 3.5 16.36 3.42 16.21C3.33 16.03 3.33 15.8 3.33 15.33L3.33 13C3.33 12.53 3.33 12.3 3.42 12.12C3.5 11.96 3.63 11.83 3.78 11.75C3.96 11.66 4.19 11.66 4.66 11.66L6.99 11.66ZM15.33 11.66C15.8 11.66 16.03 11.66 16.21 11.75C16.36 11.83 16.49 11.96 16.57 12.12C16.66 12.3 16.66 12.53 16.66 13L16.66 15.33C16.66 15.8 16.66 16.03 16.57 16.21C16.49 16.36 16.36 16.49 16.21 16.57C16.03 16.66 15.8 16.66 15.33 16.66L13 16.66C12.53 16.66 12.29 16.66 12.12 16.57C11.96 16.49 11.83 16.36 11.75 16.21C11.66 16.03 11.66 15.8 11.66 15.33L11.66 13C11.66 12.53 11.66 12.3 11.75 12.12C11.83 11.96 11.96 11.83 12.12 11.75C12.29 11.66 12.53 11.66 13 11.66L15.33 11.66Z" stroke="#5228B6" stroke-opacity="1.000000" stroke-width="2.000000" stroke-linejoin="round"/>
	</g>
</svg>
