<svg width="23.000000" height="23.000000" viewBox="0 0 23 23" fill="none" xmlns="http://www.w3.org/2000/svg" xmlns:xlink="http://www.w3.org/1999/xlink">
	<desc>
			Created with Pixso.
	</desc>
	<defs>
		<clipPath id="clip72_805">
			<rect rx="0.000000" width="22.080000" height="22.080000" transform="translate(0.460000 0.460000)" fill="white" fill-opacity="0"/>
		</clipPath>
	</defs>
	<g clip-path="url(#clip72_805)">
		<path d="M6.03 4.79L20.12 4.79L18.2 11.5L7.06 11.5M19.16 15.33L7.66 15.33L5.75 2.87L2.87 2.87M7.66 20.12C7.13 20.12 6.7 19.69 6.7 19.16C6.7 18.63 7.13 18.2 7.66 18.2C8.19 18.2 8.62 18.63 8.62 19.16C8.62 19.69 8.19 20.12 7.66 20.12ZM18.2 20.12C17.67 20.12 17.25 19.69 17.25 19.16C17.25 18.63 17.67 18.2 18.2 18.2C18.73 18.2 19.16 18.63 19.16 19.16C19.16 19.69 18.73 20.12 18.2 20.12Z" stroke="#FFFFFF" stroke-opacity="1.000000" stroke-width="1.840000" stroke-linejoin="round" stroke-linecap="round"/>
	</g>
</svg>
