<svg width="146.000000" height="17.000000" viewBox="0 0 146 17" fill="none" xmlns="http://www.w3.org/2000/svg" xmlns:xlink="http://www.w3.org/1999/xlink">
	<desc>
			Created with Pixso.
	</desc>
	<defs>
		<clipPath id="clip72_787">
			<rect id="Outschool svg" rx="0.000000" width="145.000000" height="16.000000" transform="translate(0.500000 0.500000)" fill="white" fill-opacity="0"/>
		</clipPath>
	</defs>
	<rect id="Outschool svg" rx="0.000000" width="145.000000" height="16.000000" transform="translate(0.500000 0.500000)" fill="#FFFFFF" fill-opacity="0"/>
	<g clip-path="url(#clip72_787)">
		<path id="Vector" d="M36.63 4.77L41.18 4.77L41.18 16.51L46.24 16.51L46.24 4.77L50.79 4.77L50.79 0.48L36.6 0.48L36.6 4.77L36.63 4.77Z" fill="#FFFFFF" fill-opacity="1.000000" fill-rule="nonzero"/>
		<path id="Vector" d="M60.53 6.6L58.6 6.12C57.55 5.86 57.04 5.51 57.04 5.06C57.04 4.42 57.82 4.07 59.24 4.07C61.01 4.07 62.88 4.71 64.51 5.86L64.51 1.31C62.64 0.41 60.74 0 58.73 0C54.56 0 51.94 1.98 51.94 5.16C51.94 7.6 53.4 9.17 56.39 9.94L58.84 10.55C59.82 10.77 60.3 11.16 60.3 11.7C60.3 12.5 59.45 12.92 57.89 12.92C55.85 12.92 53.74 12.18 52.05 10.87L52.05 15.42C54.02 16.48 56.12 17 58.4 17C62.67 17 65.36 14.91 65.36 11.57C65.39 9.07 63.76 7.4 60.53 6.6Z" fill="#FFFFFF" fill-opacity="1.000000" fill-rule="nonzero"/>
		<path id="Vector" d="M30.04 10.16C30.04 11.51 28.92 12.57 27.5 12.57C26.07 12.57 24.95 11.51 24.95 10.16L24.95 0.48L19.89 0.48L19.89 9.81C19.89 14.01 23.05 17 27.5 17C31.95 17 35.1 14.01 35.1 9.81L35.1 0.48L30.04 0.48L30.04 10.16Z" fill="#FFFFFF" fill-opacity="1.000000" fill-rule="nonzero"/>
		<path id="Vector" d="M9.13 0C4 0 0 3.72 0 8.5C0 13.27 4 17 9.13 17C14.26 17 18.26 13.27 18.26 8.5C18.26 3.72 14.26 0 9.13 0ZM9.13 12.57C6.92 12.57 5.19 10.77 5.19 8.5C5.19 6.22 6.92 4.42 9.13 4.42C11.34 4.42 13.07 6.22 13.07 8.5C13.07 10.77 11.34 12.57 9.13 12.57Z" fill="#FFFFFF" fill-opacity="1.000000" fill-rule="nonzero"/>
		<path id="Vector" d="M139.14 12.22L139.14 0.48L134.08 0.48L134.08 16.51L146 16.51L146 12.22L139.14 12.22Z" fill="#FFFFFF" fill-opacity="1.000000" fill-rule="nonzero"/>
		<path id="Vector" d="M123.31 0C121.21 0 119.72 0.48 117.88 1.73C116.76 2.4 116.22 2.63 115.74 2.63C115.17 2.63 114.62 2.4 113.6 1.73C111.77 0.48 110.24 0 108.17 0C103.04 0 99.04 3.72 99.04 8.5C99.04 13.27 102.98 17 108.1 17C110.17 17 111.67 16.51 113.54 15.26C114.55 14.56 115.1 14.36 115.68 14.36C116.32 14.36 116.83 14.59 117.81 15.26C119.65 16.51 121.18 17 123.25 17C128.37 17 132.38 13.27 132.38 8.5C132.38 3.72 128.41 0 123.31 0ZM123.28 12.44C122.09 12.44 120.33 11.77 119 10.84C117.75 9.94 116.76 9.55 115.71 9.55C114.66 9.55 113.67 9.94 112.42 10.84C111.09 11.77 109.33 12.41 108.14 12.41C105.93 12.41 104.2 10.68 104.2 8.46C104.2 6.25 105.96 4.52 108.14 4.52C109.33 4.52 111.09 5.16 112.42 6.09C113.71 6.99 114.72 7.37 115.71 7.37C116.76 7.37 117.75 6.99 119 6.09C120.33 5.16 122.09 4.49 123.28 4.49C125.49 4.49 127.22 6.22 127.22 8.43C127.22 10.64 125.49 12.44 123.28 12.44Z" fill="#FFFFFF" fill-opacity="1.000000" fill-rule="nonzero"/>
		<path id="Vector" d="M92.25 6.22L87.19 6.22L87.19 0.48L82.13 0.48L82.13 16.51L87.19 16.51L87.19 10.52L92.25 10.52L92.25 16.51L97.31 16.51L97.31 0.48L92.25 0.48L92.25 6.22Z" fill="#FFFFFF" fill-opacity="1.000000" fill-rule="nonzero"/>
		<path id="Vector" d="M66.41 8.5C66.41 13.47 70.18 17 75.54 17C76.93 17 78.7 16.71 80.09 16.26L80.09 11.7C78.94 12.28 77.68 12.57 76.29 12.57C73.54 12.57 71.6 10.9 71.6 8.5C71.6 6.09 73.54 4.42 76.29 4.42C77.61 4.42 78.87 4.74 80.09 5.32L80.09 0.8C78.77 0.32 77.04 0 75.54 0C70.18 0 66.41 3.52 66.41 8.5Z" fill="#FFFFFF" fill-opacity="1.000000" fill-rule="nonzero"/>
	</g>
</svg>
