<svg width="44.000000" height="44.000000" viewBox="0 0 44 44" fill="none" xmlns="http://www.w3.org/2000/svg" xmlns:xlink="http://www.w3.org/1999/xlink">
	<desc>
			Created with Pixso.
	</desc>
	<defs>
		<clipPath id="clip72_834">
			<rect id="tabler:certificate" rx="0.000000" width="43.000000" height="43.000000" transform="translate(0.500000 0.500000)" fill="white" fill-opacity="0"/>
		</clipPath>
	</defs>
	<rect id="tabler:certificate" rx="0.000000" width="43.000000" height="43.000000" transform="translate(0.500000 0.500000)" fill="#FFFFFF" fill-opacity="0"/>
	<g clip-path="url(#clip72_834)">
		<path id="Vector" d="M27.5 33C24.46 33 22 30.53 22 27.5C22 24.46 24.46 22 27.5 22C30.53 22 33 24.46 33 27.5C33 30.53 30.53 33 27.5 33Z" stroke="#5027B5" stroke-opacity="1.000000" stroke-width="3.000000" stroke-linejoin="round"/>
		<path id="Vector" d="M23.83 32.08L23.83 40.33L27.5 37.58L31.16 40.33L31.16 32.08" stroke="#5027B5" stroke-opacity="1.000000" stroke-width="3.000000" stroke-linejoin="round" stroke-linecap="round"/>
		<path id="Vector" d="M18.33 34.83L9.16 34.83C8.19 34.83 7.26 34.44 6.57 33.75C5.88 33.07 5.5 32.13 5.5 31.16L5.5 12.83C5.5 10.81 7.14 9.16 9.16 9.16L34.83 9.16C35.8 9.16 36.73 9.55 37.42 10.24C38.11 10.92 38.5 11.86 38.5 12.83L38.5 31.16C38.49 31.8 38.32 32.44 38 32.99C37.68 33.55 37.22 34.01 36.66 34.33M11 16.5L33 16.5M11 22L16.5 22M11 27.5L14.66 27.5" stroke="#5027B5" stroke-opacity="1.000000" stroke-width="3.000000" stroke-linejoin="round" stroke-linecap="round"/>
	</g>
</svg>
