<svg width="44.000000" height="44.000000" viewBox="0 0 44 44" fill="none" xmlns="http://www.w3.org/2000/svg" xmlns:xlink="http://www.w3.org/1999/xlink">
	<desc>
			Created with Pixso.
	</desc>
	<defs>
		<clipPath id="clip72_822">
			<rect rx="0.000000" width="43.000000" height="43.000000" transform="translate(0.500000 0.500000)" fill="white" fill-opacity="0"/>
		</clipPath>
	</defs>
	<g clip-path="url(#clip72_822)">
		<path d="M27.5 16.5L27.51 16.5M38.5 16.5C38.5 10.42 33.57 5.5 27.5 5.5C21.42 5.5 16.5 10.42 16.5 16.5C16.5 17 16.53 17.49 16.59 17.97C16.7 18.77 16.75 19.17 16.72 19.42C16.68 19.68 16.63 19.82 16.5 20.06C16.38 20.28 16.16 20.5 15.72 20.93L6.35 30.3C6.04 30.62 5.88 30.78 5.77 30.96C5.66 31.13 5.59 31.31 5.55 31.49C5.5 31.7 5.5 31.93 5.5 32.38L5.5 35.56C5.5 36.59 5.5 37.1 5.69 37.49C5.87 37.84 6.15 38.12 6.5 38.3C6.89 38.5 7.4 38.5 8.43 38.5L11.61 38.5C12.06 38.5 12.29 38.5 12.5 38.44C12.68 38.4 12.86 38.33 13.03 38.22C13.21 38.11 13.37 37.95 13.69 37.64L23.06 28.27C23.49 27.83 23.71 27.61 23.93 27.49C24.17 27.36 24.31 27.31 24.57 27.27C24.82 27.24 25.22 27.29 26.02 27.4C26.5 27.46 26.99 27.5 27.5 27.5C33.57 27.5 38.5 22.57 38.5 16.5Z" stroke="#5027B5" stroke-opacity="1.000000" stroke-width="3.000000" stroke-linejoin="round" stroke-linecap="round"/>
	</g>
</svg>
