<svg width="44.000000" height="44.000000" viewBox="0 0 44 44" fill="none" xmlns="http://www.w3.org/2000/svg" xmlns:xlink="http://www.w3.org/1999/xlink">
	<desc>
			Created with Pixso.
	</desc>
	<defs>
		<clipPath id="clip72_843">
			<rect rx="0.000000" width="43.000000" height="43.000000" transform="translate(0.500000 0.500000)" fill="white" fill-opacity="0"/>
		</clipPath>
	</defs>
	<g clip-path="url(#clip72_843)">
		<path d="M17.89 7.01C20.26 4.99 23.73 4.99 26.1 7.01C27.11 7.87 28.37 8.39 29.69 8.5C32.79 8.74 35.25 11.2 35.49 14.3C35.6 15.62 36.12 16.88 36.98 17.89C39 20.26 39 23.73 36.98 26.1C36.12 27.11 35.6 28.37 35.49 29.69C35.25 32.79 32.79 35.25 29.69 35.49C28.37 35.6 27.11 36.12 26.1 36.98C23.73 39 20.26 39 17.89 36.98C16.88 36.12 15.62 35.6 14.3 35.49C11.2 35.25 8.74 32.79 8.5 29.69C8.39 28.37 7.87 27.11 7.01 26.1C4.99 23.73 4.99 20.26 7.01 17.89C7.87 16.88 8.39 15.62 8.5 14.3C8.74 11.2 11.2 8.74 14.3 8.5C15.62 8.39 16.88 7.87 17.89 7.01ZM25.66 17.41C24.75 17.18 23.25 17.18 22 17.18C20.51 17.23 18.33 17.85 18.33 19.59C18.33 21.45 20.16 21.99 22 21.99C23.83 21.99 25.66 22.42 25.66 24.4C25.66 25.89 23.84 26.54 22 26.76C20.53 26.76 20.16 26.81 18.33 26.58M22 26.76L22 29.33M22 14.66L22 17.18" stroke="#5027B5" stroke-opacity="1.000000" stroke-width="3.000000" stroke-linejoin="round" stroke-linecap="round"/>
	</g>
</svg>
