<svg width="32.000000" height="32.000000" viewBox="0 0 32 32" fill="none" xmlns="http://www.w3.org/2000/svg" xmlns:xlink="http://www.w3.org/1999/xlink">
	<desc>
			Created with Pixso.
	</desc>
	<defs>
		<clipPath id="clip72_686">
			<rect id="typcn:social-facebook" rx="0.000000" width="23.000000" height="23.000000" transform="translate(4.500000 4.500000)" fill="white" fill-opacity="0"/>
		</clipPath>
	</defs>
	<circle id="Ellipse 38" cx="16.000000" cy="16.000000" r="16.000000" fill="#D9D9D9" fill-opacity="1.000000"/>
	<rect id="typcn:social-facebook" rx="0.000000" width="23.000000" height="23.000000" transform="translate(4.500000 4.500000)" fill="#FFFFFF" fill-opacity="0"/>
	<g clip-path="url(#clip72_686)">
		<path id="Vector" d="M17 14L20 14L20 17L17 17L17 24L14 24L14 17L11 17L11 14L14 14L14 12.74C14 11.55 14.37 10.05 15.11 9.23C15.86 8.4 16.79 8 17.9 8L20 8L20 11L17.9 11C17.4 11 17 11.4 17 11.89L17 14Z" fill="#1B1B1B" fill-opacity="1.000000" fill-rule="nonzero"/>
	</g>
</svg>
