<svg width="32.000000" height="32.000000" viewBox="0 0 32 32" fill="none" xmlns="http://www.w3.org/2000/svg" xmlns:xlink="http://www.w3.org/1999/xlink">
	<desc>
			Created with Pixso.
	</desc>
	<defs>
		<clipPath id="clip72_694">
			<rect id="typcn:social-instagram" rx="0.000000" width="23.000000" height="23.000000" transform="translate(4.500000 4.500000)" fill="white" fill-opacity="0"/>
		</clipPath>
	</defs>
	<circle id="Ellipse 37" cx="16.000000" cy="16.000000" r="16.000000" fill="#D9D9D9" fill-opacity="1.000000"/>
	<rect id="typcn:social-instagram" rx="0.000000" width="23.000000" height="23.000000" transform="translate(4.500000 4.500000)" fill="#FFFFFF" fill-opacity="0"/>
	<g clip-path="url(#clip72_694)">
		<path id="Vector" d="M22 7L10 7C8.29 7 7 8.3 7 10L7 22C7 23.7 8.29 25 10 25L22 25C23.7 25 25 23.7 25 22L25 10C25 8.3 23.7 7 22 7ZM16 13C17.7 13 19 14.3 19 16C19 17.7 17.7 19 16 19C14.3 19 13 17.7 13 16C13 14.3 14.3 13 16 13ZM19.79 11C19.79 10.3 20.4 9.8 21 9.8C21.6 9.8 22.2 10.39 22.2 11C22.2 11.6 21.7 12.2 21 12.2C20.29 12.2 19.79 11.7 19.79 11ZM22 23L10 23C9.39 23 9 22.6 9 22L9 16L11 16C11 18.79 13.2 21 16 21C18.79 21 21 18.79 21 16L23 16L23 22C23 22.6 22.6 23 22 23Z" fill="#1B1B1B" fill-opacity="1.000000" fill-rule="nonzero"/>
	</g>
</svg>
