<svg width="198.000000" height="23.000000" viewBox="0 0 198 23" fill="none" xmlns="http://www.w3.org/2000/svg" xmlns:xlink="http://www.w3.org/1999/xlink">
	<desc>
			Created with Pixso.
	</desc>
	<defs>
		<clipPath id="clip72_663">
			<rect id="Outschool svg" rx="0.000000" width="197.000000" height="22.000000" transform="translate(0.500000 0.500000)" fill="white" fill-opacity="0"/>
		</clipPath>
	</defs>
	<rect id="Outschool svg" rx="0.000000" width="197.000000" height="22.000000" transform="translate(0.500000 0.500000)" fill="#FFFFFF" fill-opacity="0"/>
	<g clip-path="url(#clip72_663)">
		<path id="Vector" d="M49.68 6.46L55.85 6.46L55.85 22.34L62.71 22.34L62.71 6.46L68.88 6.46L68.88 0.65L49.63 0.65L49.63 6.46L49.68 6.46Z" fill="#FFFFFF" fill-opacity="1.000000" fill-rule="nonzero"/>
		<path id="Vector" d="M82.1 8.93L79.47 8.28C78.04 7.94 77.35 7.46 77.35 6.85C77.35 5.98 78.41 5.51 80.35 5.51C82.74 5.51 85.27 6.37 87.48 7.94L87.48 1.77C84.95 0.56 82.37 0 79.66 0C73.99 0 70.45 2.69 70.45 6.98C70.45 10.28 72.43 12.41 76.48 13.45L79.79 14.27C81.13 14.58 81.77 15.1 81.77 15.83C81.77 16.92 80.62 17.48 78.5 17.48C75.74 17.48 72.89 16.49 70.58 14.71L70.58 20.87C73.26 22.3 76.11 23 79.19 23C85 23 88.63 20.17 88.63 15.66C88.68 12.28 86.47 10.02 82.1 8.93Z" fill="#FFFFFF" fill-opacity="1.000000" fill-rule="nonzero"/>
		<path id="Vector" d="M40.75 13.75C40.75 15.57 39.23 17.01 37.29 17.01C35.36 17.01 33.84 15.57 33.84 13.75L33.84 0.65L26.98 0.65L26.98 13.27C26.98 18.96 31.26 23 37.29 23C43.32 23 47.61 18.96 47.61 13.27L47.61 0.65L40.75 0.65L40.75 13.75Z" fill="#FFFFFF" fill-opacity="1.000000" fill-rule="nonzero"/>
		<path id="Vector" d="M12.38 0C5.43 0 0 5.03 0 11.5C0 17.96 5.43 23 12.38 23C19.33 23 24.77 17.96 24.77 11.5C24.77 5.03 19.33 0 12.38 0ZM12.38 17.01C9.39 17.01 7.04 14.58 7.04 11.5C7.04 8.41 9.39 5.98 12.38 5.98C15.37 5.98 17.72 8.41 17.72 11.5C17.72 14.58 15.37 17.01 12.38 17.01Z" fill="#FFFFFF" fill-opacity="1.000000" fill-rule="nonzero"/>
		<path id="Vector" d="M188.69 16.53L188.69 0.65L181.83 0.65L181.83 22.34L198 22.34L198 16.53L188.69 16.53Z" fill="#FFFFFF" fill-opacity="1.000000" fill-rule="nonzero"/>
		<path id="Vector" d="M167.24 0C164.38 0 162.36 0.65 159.87 2.34C158.35 3.25 157.61 3.55 156.97 3.55C156.19 3.55 155.45 3.25 154.07 2.34C151.58 0.65 149.51 0 146.7 0C139.75 0 134.31 5.03 134.31 11.5C134.31 17.96 139.65 23 146.61 23C149.42 23 151.44 22.34 153.98 20.65C155.36 19.7 156.09 19.44 156.88 19.44C157.75 19.44 158.44 19.74 159.78 20.65C162.26 22.34 164.34 23 167.14 23C174.1 23 179.53 17.96 179.53 11.5C179.53 5.03 174.14 0 167.24 0ZM167.19 16.83C165.58 16.83 163.18 15.92 161.39 14.66C159.68 13.45 158.35 12.93 156.92 12.93C155.49 12.93 154.16 13.45 152.46 14.66C150.66 15.92 148.27 16.79 146.65 16.79C143.66 16.79 141.31 14.45 141.31 11.45C141.31 8.46 143.71 6.11 146.65 6.11C148.27 6.11 150.66 6.98 152.46 8.24C154.21 9.46 155.59 9.98 156.92 9.98C158.35 9.98 159.68 9.46 161.39 8.24C163.18 6.98 165.58 6.07 167.19 6.07C170.18 6.07 172.53 8.41 172.53 11.41C172.53 14.4 170.18 16.83 167.19 16.83Z" fill="#FFFFFF" fill-opacity="1.000000" fill-rule="nonzero"/>
		<path id="Vector" d="M125.1 8.41L118.24 8.41L118.24 0.65L111.38 0.65L111.38 22.34L118.24 22.34L118.24 14.23L125.1 14.23L125.1 22.34L131.96 22.34L131.96 0.65L125.1 0.65L125.1 8.41Z" fill="#FFFFFF" fill-opacity="1.000000" fill-rule="nonzero"/>
		<path id="Vector" d="M90.06 11.5C90.06 18.22 95.17 23 102.45 23C104.34 23 106.73 22.6 108.62 22L108.62 15.83C107.05 16.62 105.35 17.01 103.46 17.01C99.73 17.01 97.11 14.75 97.11 11.5C97.11 8.24 99.73 5.98 103.46 5.98C105.26 5.98 106.96 6.42 108.62 7.2L108.62 1.08C106.82 0.43 104.48 0 102.45 0C95.17 0 90.06 4.77 90.06 11.5Z" fill="#FFFFFF" fill-opacity="1.000000" fill-rule="nonzero"/>
	</g>
</svg>
