<svg width="32.000000" height="32.000000" viewBox="0 0 32 32" fill="none" xmlns="http://www.w3.org/2000/svg" xmlns:xlink="http://www.w3.org/1999/xlink">
	<desc>
			Created with Pixso.
	</desc>
	<defs>
		<clipPath id="clip72_682">
			<rect id="typcn:social-twitter" rx="0.000000" width="23.000000" height="23.000000" transform="translate(4.500000 4.500000)" fill="white" fill-opacity="0"/>
		</clipPath>
	</defs>
	<circle id="Ellipse 37" cx="16.000000" cy="16.000000" r="16.000000" fill="#D9D9D9" fill-opacity="1.000000"/>
	<rect id="typcn:social-twitter" rx="0.000000" width="23.000000" height="23.000000" transform="translate(4.500000 4.500000)" fill="#FFFFFF" fill-opacity="0"/>
	<g clip-path="url(#clip72_682)">
		<path id="Vector" d="M22.89 11.01C23.69 10.51 24.23 9.83 24.49 8.97C23.75 9.37 22.96 9.66 22.14 9.83C21.44 9.08 20.55 8.69 19.48 8.69C18.44 8.69 17.56 9.06 16.84 9.77C16.49 10.11 16.21 10.52 16.03 10.96C15.84 11.41 15.75 11.89 15.76 12.38C15.76 12.69 15.8 12.96 15.88 13.2C12.8 13.09 10.26 11.82 8.25 9.36C7.91 9.96 7.74 10.57 7.74 11.21C7.74 12.51 8.29 13.54 9.38 14.29C8.76 14.24 8.21 14.08 7.74 13.82C7.74 14.75 8.01 15.53 8.56 16.21C9.09 16.88 9.84 17.33 10.67 17.5C10.36 17.58 10.03 17.62 9.7 17.62C9.38 17.62 9.16 17.6 9.03 17.54C9.26 18.3 9.7 18.91 10.32 19.38C10.94 19.85 11.7 20.11 12.47 20.12C11.14 21.17 9.62 21.68 7.9 21.68C7.47 21.68 7.18 21.68 6.99 21.65C8.69 22.75 10.58 23.3 12.67 23.3C14.81 23.3 16.7 22.75 18.34 21.67C19.99 20.59 21.2 19.26 21.98 17.7C22.75 16.18 23.16 14.5 23.16 12.8L23.16 12.34C23.87 11.81 24.5 11.16 25 10.41C24.32 10.71 23.61 10.91 22.89 11.01Z" fill="#1B1B1B" fill-opacity="1.000000" fill-rule="nonzero"/>
	</g>
</svg>
