<svg width="32.000000" height="32.000000" viewBox="0 0 32 32" fill="none" xmlns="http://www.w3.org/2000/svg" xmlns:xlink="http://www.w3.org/1999/xlink">
	<desc>
			Created with Pixso.
	</desc>
	<defs>
		<clipPath id="clip72_690">
			<rect id="ion:social-youtube" rx="0.000000" width="17.000000" height="17.000000" transform="translate(7.500000 7.500000)" fill="white" fill-opacity="0"/>
		</clipPath>
	</defs>
	<circle id="Ellipse 39" cx="16.000000" cy="16.000000" r="16.000000" fill="#D9D9D9" fill-opacity="1.000000"/>
	<rect id="ion:social-youtube" rx="0.000000" width="17.000000" height="17.000000" transform="translate(7.500000 7.500000)" fill="#FFFFFF" fill-opacity="0"/>
	<g clip-path="url(#clip72_690)">
		<path id="Vector" d="M24.88 12.23C24.88 10.64 23.71 9.37 22.28 9.37C20.33 9.28 18.34 9.25 16.31 9.25L15.68 9.25C13.65 9.25 11.66 9.28 9.72 9.37C8.28 9.37 7.12 10.65 7.12 12.23C7.03 13.48 6.99 14.74 6.99 15.99C6.99 17.24 7.03 18.49 7.11 19.75C7.11 21.33 8.28 22.61 9.71 22.61C11.76 22.71 13.86 22.75 15.99 22.74C18.13 22.75 20.22 22.71 22.27 22.61C23.71 22.61 24.87 21.33 24.87 19.75C24.96 18.49 25 17.24 24.99 15.98C25 14.73 24.96 13.48 24.88 12.23ZM14.27 19.44L14.27 12.53L19.37 15.98L14.27 19.44Z" fill="#1B1B1B" fill-opacity="1.000000" fill-rule="nonzero"/>
	</g>
</svg>
