<svg width="16.000000" height="16.000000" viewBox="0 0 16 16" fill="none" xmlns="http://www.w3.org/2000/svg" xmlns:xlink="http://www.w3.org/1999/xlink">
	<desc>
			Created with Pixso.
	</desc>
	<defs>
		<clipPath id="clip72_902">
			<rect id="star-sharp" rx="0.000000" width="15.333333" height="15.333333" transform="translate(0.333333 0.333333)" fill="white" fill-opacity="0"/>
		</clipPath>
	</defs>
	<g clip-path="url(#clip72_902)">
		<path id="Icon" d="M7.49 2.78C7.65 2.33 7.72 2.11 7.84 2.05C7.94 2 8.05 2 8.15 2.05C8.27 2.11 8.34 2.33 8.5 2.78L9.52 5.71C9.56 5.84 9.58 5.9 9.62 5.95C9.66 5.99 9.7 6.02 9.75 6.04C9.81 6.07 9.88 6.07 10.01 6.07L13.12 6.13C13.59 6.14 13.82 6.15 13.92 6.24C14 6.32 14.03 6.43 14.01 6.54C13.99 6.67 13.8 6.81 13.43 7.09L10.95 8.97C10.85 9.05 10.79 9.09 10.76 9.14C10.73 9.19 10.72 9.24 10.71 9.3C10.71 9.36 10.73 9.42 10.77 9.55L11.67 12.52C11.8 12.97 11.87 13.2 11.81 13.31C11.76 13.42 11.67 13.49 11.56 13.5C11.43 13.52 11.24 13.38 10.85 13.12L8.3 11.34C8.19 11.26 8.13 11.23 8.08 11.21C8.02 11.2 7.97 11.2 7.91 11.21C7.86 11.23 7.8 11.26 7.69 11.34L5.14 13.12C4.75 13.38 4.56 13.52 4.43 13.5C4.32 13.49 4.23 13.42 4.18 13.31C4.12 13.2 4.19 12.97 4.32 12.52L5.22 9.55C5.26 9.42 5.28 9.36 5.28 9.3C5.27 9.24 5.26 9.19 5.23 9.14C5.2 9.09 5.14 9.05 5.04 8.97L2.56 7.09C2.19 6.81 2 6.67 1.98 6.54C1.96 6.43 1.99 6.32 2.07 6.24C2.17 6.15 2.4 6.14 2.87 6.13L5.98 6.07C6.11 6.07 6.18 6.07 6.24 6.04C6.29 6.02 6.33 5.99 6.37 5.95C6.41 5.9 6.43 5.84 6.47 5.71L7.49 2.78Z" fill="#EBE100" fill-opacity="1.000000" fill-rule="nonzero"/>
		<path id="Icon" d="M9.52 5.71C9.56 5.84 9.58 5.9 9.62 5.95C9.66 5.99 9.7 6.02 9.75 6.04C9.81 6.07 9.88 6.07 10.01 6.07L13.12 6.13C13.59 6.14 13.82 6.15 13.92 6.24C14 6.32 14.03 6.43 14.01 6.54C13.99 6.67 13.8 6.81 13.43 7.09L10.95 8.97C10.85 9.05 10.79 9.09 10.76 9.14C10.73 9.19 10.72 9.24 10.71 9.3C10.71 9.36 10.73 9.42 10.77 9.55L11.67 12.52C11.8 12.97 11.87 13.2 11.81 13.31C11.76 13.42 11.67 13.49 11.56 13.5C11.43 13.52 11.24 13.38 10.85 13.12L8.3 11.34C8.19 11.26 8.13 11.23 8.08 11.21C8.02 11.2 7.97 11.2 7.91 11.21C7.86 11.23 7.8 11.26 7.69 11.34L5.14 13.12C4.75 13.38 4.56 13.52 4.43 13.5C4.32 13.49 4.23 13.42 4.18 13.31C4.12 13.2 4.19 12.97 4.32 12.52L5.22 9.55C5.26 9.42 5.28 9.36 5.28 9.3C5.27 9.24 5.26 9.19 5.23 9.14C5.2 9.09 5.14 9.05 5.04 8.97L2.56 7.09C2.19 6.81 2 6.67 1.98 6.54C1.96 6.43 1.99 6.32 2.07 6.24C2.17 6.15 2.4 6.14 2.87 6.13L5.98 6.07C6.11 6.07 6.18 6.07 6.24 6.04C6.29 6.02 6.33 5.99 6.37 5.95C6.41 5.9 6.43 5.84 6.47 5.71L7.49 2.78C7.65 2.33 7.72 2.11 7.84 2.05C7.94 2 8.05 2 8.15 2.05C8.27 2.11 8.34 2.33 8.5 2.78L9.52 5.71Z" stroke="#EBE100" stroke-opacity="1.000000" stroke-width="1.333333" stroke-linejoin="round"/>
	</g>
</svg>
